<?xml version="1.0" encoding="UTF-8"?> <svg xmlns="http://www.w3.org/2000/svg" xmlns:xlink="http://www.w3.org/1999/xlink" width="200" height="100" viewBox="0 0 200 100"><defs><clipPath id="clip-custom_1"><rect width="200" height="100"></rect></clipPath></defs><g id="custom_1" data-name="custom – 1" clip-path="url(#clip-custom_1)"><rect width="200" height="100" fill="#fff"></rect><path id="Path_1" data-name="Path 1" d="M8.89.35A14.172,14.172,0,0,1,4.55-.332,10.7,10.7,0,0,1,.875-2.31L2.2-4.375a12.964,12.964,0,0,0,3.22,1.838,9.467,9.467,0,0,0,3.395.612,5.607,5.607,0,0,0,3.168-.788A2.525,2.525,0,0,0,13.16-4.935a2,2,0,0,0-.315-1.138,2.65,2.65,0,0,0-.945-.822,7.72,7.72,0,0,0-1.61-.63q-.98-.28-2.275-.595Q6.37-8.54,5.18-8.925a7.68,7.68,0,0,1-1.96-.91A3.187,3.187,0,0,1,2.1-11.1a4.219,4.219,0,0,1-.35-1.82,5.294,5.294,0,0,1,.543-2.432A5.129,5.129,0,0,1,3.78-17.132,6.7,6.7,0,0,1,6-18.218a9.9,9.9,0,0,1,2.747-.368,10.941,10.941,0,0,1,3.85.665,9.47,9.47,0,0,1,3.01,1.75l-1.4,1.855a7.862,7.862,0,0,0-2.59-1.522,8.756,8.756,0,0,0-2.94-.508,5.365,5.365,0,0,0-2.853.718,2.487,2.487,0,0,0-1.172,2.293,2.185,2.185,0,0,0,.227,1.05,1.982,1.982,0,0,0,.752.735,5.934,5.934,0,0,0,1.347.56q.823.245,1.978.525,1.82.42,3.168.858a9.118,9.118,0,0,1,2.24,1.033,3.982,3.982,0,0,1,1.33,1.4,4.055,4.055,0,0,1,.438,1.96,4.852,4.852,0,0,1-1.96,4.06A8.465,8.465,0,0,1,8.89.35ZM29.225-.91q-.28.14-.735.333t-1.033.385A9.034,9.034,0,0,1,26.2.123,8.011,8.011,0,0,1,24.78.245a4.675,4.675,0,0,1-2.905-.928A3.388,3.388,0,0,1,20.65-3.57V-15.855H18.165V-18.27H20.65v-6.09h3.08v6.09h4.095v2.415H23.73v11.34a1.91,1.91,0,0,0,.665,1.47,2.239,2.239,0,0,0,1.4.455,4.485,4.485,0,0,0,1.662-.3A7.237,7.237,0,0,0,28.49-3.36Zm12.53-14.665a7.917,7.917,0,0,0-4.077,1.19,6.069,6.069,0,0,0-2.5,3.115V0H32.1V-18.27h2.87v4.235A8.618,8.618,0,0,1,37.45-17.1a6.176,6.176,0,0,1,3.29-1.312h.6a2.174,2.174,0,0,1,.42.035ZM52.465.35A9.306,9.306,0,0,1,48.685-.4a8.939,8.939,0,0,1-2.94-2.048,9.334,9.334,0,0,1-1.907-3.027,9.888,9.888,0,0,1-.683-3.658,9.753,9.753,0,0,1,.683-3.64,9.23,9.23,0,0,1,1.925-3.01,9.137,9.137,0,0,1,2.958-2.048,9.306,9.306,0,0,1,3.78-.753,9,9,0,0,1,3.763.77,8.941,8.941,0,0,1,2.888,2.048,9.045,9.045,0,0,1,1.837,2.975,9.788,9.788,0,0,1,.648,3.518q0,.385-.018.7a3.69,3.69,0,0,1-.052.49H46.41A7.085,7.085,0,0,0,47.04-5.6,6.394,6.394,0,0,0,48.4-3.675a6.312,6.312,0,0,0,1.908,1.26,5.7,5.7,0,0,0,2.257.455,6.02,6.02,0,0,0,1.645-.227A7.14,7.14,0,0,0,55.72-2.8a5.222,5.222,0,0,0,1.243-.945,3.857,3.857,0,0,0,.822-1.26l2.66.735A6.717,6.717,0,0,1,59.2-2.415a8.24,8.24,0,0,1-1.82,1.452A9.4,9.4,0,0,1,55.09,0,9.763,9.763,0,0,1,52.465.35ZM58.73-10.36a6.583,6.583,0,0,0-.648-2.4,6.41,6.41,0,0,0-1.365-1.873,6.1,6.1,0,0,0-1.907-1.207,6.118,6.118,0,0,0-2.31-.437,6.118,6.118,0,0,0-2.31.438,5.943,5.943,0,0,0-1.908,1.225,6.2,6.2,0,0,0-1.33,1.872,6.882,6.882,0,0,0-.612,2.38ZM74.34-.91q-.28.14-.735.333t-1.033.385a9.035,9.035,0,0,1-1.26.315,8.011,8.011,0,0,1-1.418.123,4.675,4.675,0,0,1-2.9-.928A3.388,3.388,0,0,1,65.765-3.57V-15.855H63.28V-18.27h2.485v-6.09h3.08v6.09h4.1v2.415h-4.1v11.34a1.91,1.91,0,0,0,.665,1.47,2.239,2.239,0,0,0,1.4.455,4.485,4.485,0,0,0,1.662-.3A7.237,7.237,0,0,0,73.6-3.36Zm1.4-8.26a9.979,9.979,0,0,1,.665-3.64A8.946,8.946,0,0,1,78.3-15.8a9.121,9.121,0,0,1,2.923-2.03,9.272,9.272,0,0,1,3.8-.753,8.858,8.858,0,0,1,4.708,1.208,7.84,7.84,0,0,1,2.993,3.237l-3.01.945a5.008,5.008,0,0,0-1.96-2.013,5.558,5.558,0,0,0-2.8-.717,5.7,5.7,0,0,0-2.38.508A5.657,5.657,0,0,0,80.64-14a6.977,6.977,0,0,0-1.277,2.135A7.43,7.43,0,0,0,78.89-9.17a7.37,7.37,0,0,0,.49,2.7,7.186,7.186,0,0,0,1.313,2.188,6,6,0,0,0,1.925,1.452,5.425,5.425,0,0,0,2.363.525,5.711,5.711,0,0,0,1.592-.227,6.114,6.114,0,0,0,1.435-.613,5.422,5.422,0,0,0,1.137-.892,3.043,3.043,0,0,0,.7-1.1l3.01.91A6.475,6.475,0,0,1,91.683-2.38,7.33,7.33,0,0,1,89.915-.945,9.576,9.576,0,0,1,87.658,0,9.572,9.572,0,0,1,85.05.35a9.124,9.124,0,0,1-3.78-.77,9.161,9.161,0,0,1-2.94-2.065,9.334,9.334,0,0,1-1.908-3.027A9.888,9.888,0,0,1,75.74-9.17ZM112.21,0h-3.08V-10.22a7.332,7.332,0,0,0-.98-4.217,3.3,3.3,0,0,0-2.87-1.382,4.828,4.828,0,0,0-1.82.367,6.757,6.757,0,0,0-1.7,1,7.2,7.2,0,0,0-1.4,1.505,6.68,6.68,0,0,0-.927,1.925V0h-3.08V-25.55h3.08v11.2a8.048,8.048,0,0,1,2.94-3.115,7.709,7.709,0,0,1,4.06-1.12,5.756,5.756,0,0,1,2.73.6,4.762,4.762,0,0,1,1.785,1.61,7.033,7.033,0,0,1,.963,2.432,14.723,14.723,0,0,1,.3,3.028Zm13.65,0V-18.27h3.08V0Zm0-21.7v-3.85h3.08v3.85ZM149.765,0h-3.08V-10.22a7.865,7.865,0,0,0-.893-4.27,3.044,3.044,0,0,0-2.712-1.33,5.182,5.182,0,0,0-1.89.367,7.491,7.491,0,0,0-1.785,1,6.925,6.925,0,0,0-1.47,1.505,6.434,6.434,0,0,0-.945,1.925V0h-3.08V-18.27h2.8v3.92a8.035,8.035,0,0,1,3.132-3.08,8.929,8.929,0,0,1,4.463-1.155,5.394,5.394,0,0,1,2.625.577,4.45,4.45,0,0,1,1.68,1.61,7.165,7.165,0,0,1,.893,2.432,16.542,16.542,0,0,1,.262,3.045Zm3.57-9.17A9.979,9.979,0,0,1,154-12.81a8.946,8.946,0,0,1,1.89-2.993,9.121,9.121,0,0,1,2.923-2.03,9.272,9.272,0,0,1,3.8-.753,8.858,8.858,0,0,1,4.708,1.208,7.84,7.84,0,0,1,2.992,3.237l-3.01.945a5.008,5.008,0,0,0-1.96-2.013,5.558,5.558,0,0,0-2.8-.717,5.7,5.7,0,0,0-2.38.508A5.657,5.657,0,0,0,158.235-14a6.976,6.976,0,0,0-1.277,2.135,7.43,7.43,0,0,0-.473,2.695,7.37,7.37,0,0,0,.49,2.7,7.187,7.187,0,0,0,1.313,2.188,6,6,0,0,0,1.925,1.452,5.425,5.425,0,0,0,2.363.525,5.711,5.711,0,0,0,1.592-.227A6.113,6.113,0,0,0,165.6-3.15a5.421,5.421,0,0,0,1.137-.892,3.043,3.043,0,0,0,.7-1.1l3.01.91a6.475,6.475,0,0,1-1.173,1.855A7.33,7.33,0,0,1,167.51-.945,9.576,9.576,0,0,1,165.253,0a9.573,9.573,0,0,1-2.608.35,9.124,9.124,0,0,1-3.78-.77,9.161,9.161,0,0,1-2.94-2.065,9.334,9.334,0,0,1-1.908-3.027A9.888,9.888,0,0,1,153.335-9.17ZM173.705,0V-3.92h2.59V0Z" transform="translate(11 63)"></path></g></svg> 